<mxfile host="app.diagrams.net" modified="2023-09-07T01:33:11.150Z" agent="Mozilla/5.0 (Macintosh; Intel Mac OS X 10_15_7) AppleWebKit/537.36 (KHTML, like Gecko) Chrome/115.0.0.0 Safari/537.36" version="21.6.8" etag="ji_G7aBE201Mh3AobrwC" type="github">
  <diagram name="第 1 页" id="ZTmePF-G61wtpjLrhoEY">
    <mxGraphModel>
      <root>
        <mxCell id="0" />
        <mxCell id="1" parent="0" />
      </root>
    </mxGraphModel>
  </diagram>
</mxfile>
